<svg xmlns="http://www.w3.org/2000/svg" width="67" height="66" viewBox="0 0 67 66">
  <g id="Groupe_663" data-name="Groupe 663" transform="translate(-25 -742)">
    <g id="Groupe_584" data-name="Groupe 584" transform="translate(197.981 273.652)">
      <g id="Groupe_19" data-name="Groupe 19" transform="translate(-173.981 471)">
        <g id="Tracé_2083" data-name="Tracé 2083" transform="translate(15.764 16.015)" fill="#0d0828">
          <path d="M 26.8816967010498 44.36217880249023 L 9.151216506958008 44.36217880249023 C 4.243066787719727 44.36217880249023 0.2499966025352478 40.36910629272461 0.2499966025352478 35.46095657348633 L 0.2499966025352478 9.151217460632324 C 0.2499966025352478 4.243067264556885 4.243066787719727 0.2499974966049194 9.151216506958008 0.2499974966049194 L 26.8816967010498 0.2499974966049194 C 31.78984642028809 0.2499974966049194 35.78291702270508 4.243067264556885 35.78291702270508 9.151217460632324 L 35.78291702270508 35.46095657348633 C 35.78291702270508 40.36910629272461 31.78984642028809 44.36217880249023 26.8816967010498 44.36217880249023 Z" stroke="none"/>
          <path d="M 9.151216506958008 0.4999961853027344 C 4.380916595458984 0.4999961853027344 0.4999961853027344 4.380916595458984 0.4999961853027344 9.151218414306641 L 0.4999961853027344 35.46095657348633 C 0.4999961853027344 40.23125839233398 4.380916595458984 44.11217880249023 9.151216506958008 44.11217880249023 L 26.8816967010498 44.11217880249023 C 31.65199661254883 44.11217880249023 35.53291702270508 40.23125839233398 35.53291702270508 35.46095657348633 L 35.53291702270508 9.151218414306641 C 35.53291702270508 4.380916595458984 31.65199661254883 0.4999961853027344 26.8816967010498 0.4999961853027344 L 9.151216506958008 0.4999961853027344 M 9.151216506958008 -3.814697265625e-06 L 26.8816967010498 -3.814697265625e-06 C 31.93576622009277 -3.814697265625e-06 36.03291702270508 4.097137451171875 36.03291702270508 9.151218414306641 L 36.03291702270508 35.46095657348633 C 36.03291702270508 40.51503753662109 31.93576622009277 44.61217880249023 26.8816967010498 44.61217880249023 L 9.151216506958008 44.61217880249023 C 4.097137451171875 44.61217880249023 -3.814697265625e-06 40.51503753662109 -3.814697265625e-06 35.46095657348633 L -3.814697265625e-06 9.151218414306641 C -3.814697265625e-06 4.097137451171875 4.097137451171875 -3.814697265625e-06 9.151216506958008 -3.814697265625e-06 Z" stroke="none" fill="#feeddf"/>
        </g>
        <g id="Tracé_6345" data-name="Tracé 6345" transform="translate(15.409 8.933)" fill="#fa4d3d">
          <path d="M 27.9160041809082 44.41561508178711 L 8.933124542236328 44.41561508178711 C 4.14523458480835 44.41561508178711 0.2500043511390686 40.5203857421875 0.2500043511390686 35.73249435424805 L 0.2500043511390686 8.933125495910645 C 0.2500043511390686 4.145235538482666 4.14523458480835 0.2500056326389313 8.933124542236328 0.2500056326389313 L 27.9160041809082 0.2500056326389313 C 32.70389556884766 0.2500056326389313 36.59912490844727 4.145235538482666 36.59912490844727 8.933125495910645 L 36.59912490844727 35.73249435424805 C 36.59912490844727 40.5203857421875 32.70389556884766 44.41561508178711 27.9160041809082 44.41561508178711 Z" stroke="none"/>
          <path d="M 8.933124542236328 0.4999961853027344 C 4.283084869384766 0.4999961853027344 0.5000038146972656 4.283077239990234 0.5000038146972656 8.933116912841797 L 0.5000038146972656 35.73248672485352 C 0.5000038146972656 40.38252639770508 4.283084869384766 44.16560745239258 8.933124542236328 44.16560745239258 L 27.9160041809082 44.16560745239258 C 32.56604385375977 44.16560745239258 36.34912490844727 40.38252639770508 36.34912490844727 35.73248672485352 L 36.34912490844727 8.933116912841797 C 36.34912490844727 4.283077239990234 32.56604385375977 0.4999961853027344 27.9160041809082 0.4999961853027344 L 8.933124542236328 0.4999961853027344 M 8.933124542236328 -3.814697265625e-06 L 27.9160041809082 -3.814697265625e-06 C 32.84963607788086 -3.814697265625e-06 36.84912490844727 3.999496459960938 36.84912490844727 8.933116912841797 L 36.84912490844727 35.73248672485352 C 36.84912490844727 40.66611480712891 32.84963607788086 44.66560745239258 27.9160041809082 44.66560745239258 L 8.933124542236328 44.66560745239258 C 3.999492645263672 44.66560745239258 3.814697265625e-06 40.66611480712891 3.814697265625e-06 35.73248672485352 L 3.814697265625e-06 8.933116912841797 C 3.814697265625e-06 3.999496459960938 3.999492645263672 -3.814697265625e-06 8.933124542236328 -3.814697265625e-06 Z" stroke="none" fill="#feeddf"/>
        </g>
        <g id="Soustraction_1" data-name="Soustraction 1" transform="translate(15.481 0)" fill="#fa4d3d">
          <path d="M 36.47092819213867 15.80345916748047 L 0.2515141665935516 15.80345916748047 C 0.2505052387714386 15.73715400695801 0.2499979585409164 15.67163944244385 0.2499979585409164 15.60727977752686 C 0.2499979585409164 13.53932952880859 0.7266479730606079 11.53286933898926 1.666707992553711 9.643619537353516 C 2.576358079910278 7.815559387207031 3.879437923431396 6.173079490661621 5.539748191833496 4.76177978515625 C 8.962568283081055 1.852319598197937 13.51597785949707 0.2499995827674866 18.36120796203613 0.2499995827674866 C 23.20641708374023 0.2499995827674866 27.75983810424805 1.852319598197937 31.18267822265625 4.76177978515625 C 32.84299850463867 6.173089504241943 34.14607620239258 7.815579414367676 35.05570983886719 9.643619537353516 C 35.99576950073242 11.53284931182861 36.47241973876953 13.53930950164795 36.47241973876953 15.60727977752686 C 36.47241973876953 15.67216873168945 36.47192001342773 15.73768043518066 36.47092819213867 15.80345916748047 Z" stroke="none"/>
          <path d="M 36.22230911254883 15.55345916748047 C 36.2140998840332 13.54349327087402 35.74641036987305 11.59289836883545 34.83188629150391 9.754999160766602 C 33.93740844726562 7.957419395446777 32.65515899658203 6.34153938293457 31.0207576751709 4.952269554138184 C 27.6430778503418 2.081179618835449 23.14715766906738 0.4999995827674866 18.36120796203613 0.4999995827674866 C 13.57523822784424 0.4999995827674866 9.079327583312988 2.081179618835449 5.701667785644531 4.952269554138184 C 4.067277908325195 6.341519355773926 2.785027980804443 7.957399368286133 1.890537977218628 9.754989624023438 C 0.9760039448738098 11.59291839599609 0.5083144307136536 13.54351234436035 0.5001078844070435 15.55345916748047 L 36.22230911254883 15.55345916748047 M 36.71495819091797 16.05345916748047 L 0.007447962183505297 16.05345916748047 C 0.002197962021455169 15.89242935180664 -2.037963895418216e-06 15.74260997772217 -2.037963895418216e-06 15.60727977752686 C -2.037963895418216e-06 13.50032997131348 0.4854579567909241 11.45639991760254 1.442888021469116 9.532249450683594 C 2.367677927017212 7.673769474029541 3.691577911376953 6.004649639129639 5.377838134765625 4.57129955291748 C 8.845808029174805 1.623449563980103 13.45672798156738 -4.162597520007694e-07 18.36120796203613 -4.162597520007694e-07 C 23.26568794250488 -4.162597520007694e-07 27.8765983581543 1.623449563980103 31.3445873260498 4.57129955291748 C 33.03083801269531 6.004649639129639 34.3547477722168 7.673769474029541 35.2795295715332 9.532249450683594 C 36.23696899414062 11.45639991760254 36.72241973876953 13.50032997131348 36.72241973876953 15.60727977752686 C 36.72241973876953 15.75363922119141 36.71992874145508 15.90347003936768 36.71498870849609 16.05257034301758 L 36.71495819091797 16.05345916748047 Z" stroke="none" fill="#feeddf"/>
        </g>
        <path id="Tracé_2082" data-name="Tracé 2082" d="M-153.883,501.329c11.538-3.693,14.5-7.887,14.5-7.887" transform="translate(205.276 -468.249)" fill="none" stroke="#fa4d3d" stroke-width="0.5"/>
        <line id="Ligne_7" data-name="Ligne 7" x1="3.672" y1="7.345" transform="translate(3.087 23.411)" fill="none" stroke="#fa4d3d" stroke-width="0.5"/>
        <g id="Ellipse_3" data-name="Ellipse 3" transform="translate(65 23.348)" fill="#feeddf" stroke="#fa4d3d" stroke-width="0.5">
          <circle cx="1.5" cy="1.5" r="1.5" stroke="none"/>
          <circle cx="1.5" cy="1.5" r="1.25" fill="none"/>
        </g>
        <g id="Ellipse_4" data-name="Ellipse 4" transform="translate(1 21.348)" fill="#feeddf" stroke="#fa4d3d" stroke-width="0.5">
          <circle cx="1.5" cy="1.5" r="1.5" stroke="none"/>
          <circle cx="1.5" cy="1.5" r="1.25" fill="none"/>
        </g>
        <line id="Ligne_8" data-name="Ligne 8" x1="9.181" y1="3.672" transform="translate(6.76 30.755)" fill="none" stroke="#fa4d3d" stroke-width="0.5"/>
      </g>
    </g>
    <rect id="Rectangle_3108" data-name="Rectangle 3108" width="66" height="66" transform="translate(25 742)" fill="none"/>
  </g>
</svg>
