<svg xmlns="http://www.w3.org/2000/svg" width="66" height="59.535" viewBox="0 0 66 59.535">
  <g id="Groupe_20" data-name="Groupe 20" transform="translate(209.459 -466)">
    <g id="Groupe_19" data-name="Groupe 19" transform="translate(-208.981 466)">
      <g id="Tracé_2083" data-name="Tracé 2083" transform="translate(14.603 15.726)" fill="#fa4d3d">
        <path d="M 26.39770317077637 43.30897521972656 L 8.986453056335449 43.30897521972656 C 4.307013511657715 43.30897521972656 0.5000033378601074 39.5019645690918 0.5000033378601074 34.82251358032227 L 0.5000033378601074 8.986454010009766 C 0.5000033378601074 4.307013988494873 4.307013511657715 0.5000038146972656 8.986453056335449 0.5000038146972656 L 26.39770317077637 0.5000038146972656 C 31.0771541595459 0.5000038146972656 34.88416290283203 4.307013988494873 34.88416290283203 8.986454010009766 L 34.88416290283203 34.82251358032227 C 34.88416290283203 39.5019645690918 31.0771541595459 43.30897521972656 26.39770317077637 43.30897521972656 Z" stroke="none"/>
        <path d="M 8.986454010009766 0.9999923706054688 C 4.582714080810547 0.9999923706054688 1.000003814697266 4.58270263671875 1.000003814697266 8.986454010009766 L 1.000003814697266 34.82251358032227 C 1.000003814697266 39.22625350952148 4.582714080810547 42.80896377563477 8.986454010009766 42.80896377563477 L 26.39770317077637 42.80896377563477 C 30.80145263671875 42.80896377563477 34.38416290283203 39.22625350952148 34.38416290283203 34.82251358032227 L 34.38416290283203 8.986454010009766 C 34.38416290283203 4.58270263671875 30.80145263671875 0.9999923706054688 26.39770317077637 0.9999923706054688 L 8.986454010009766 0.9999923706054688 M 8.986454010009766 -7.62939453125e-06 L 26.39770317077637 -7.62939453125e-06 C 31.36079406738281 -7.62939453125e-06 35.38416290283203 4.023372650146484 35.38416290283203 8.986454010009766 L 35.38416290283203 34.82251358032227 C 35.38416290283203 39.78559494018555 31.36079406738281 43.80896377563477 26.39770317077637 43.80896377563477 L 8.986454010009766 43.80896377563477 C 4.023372650146484 43.80896377563477 3.814697265625e-06 39.78559494018555 3.814697265625e-06 34.82251358032227 L 3.814697265625e-06 8.986454010009766 C 3.814697265625e-06 4.023372650146484 4.023372650146484 -7.62939453125e-06 8.986454010009766 -7.62939453125e-06 Z" stroke="none" fill="#0d0828"/>
      </g>
      <g id="Rectangle_170" data-name="Rectangle 170" transform="translate(13.522 9)" fill="#feeddf" stroke="#0d0828" stroke-width="1">
        <rect width="37" height="44" rx="8" stroke="none"/>
        <rect x="0.5" y="0.5" width="36" height="43" rx="7.5" fill="none"/>
      </g>
      <g id="Soustraction_1" data-name="Soustraction 1" transform="translate(14.326 0)" fill="#feeddf">
        <path d="M 35.56111145019531 15.26442432403564 L 0.5001463890075684 15.26442432403564 C 0.5095735788345337 13.29526710510254 0.9685031175613403 11.38417339324951 1.864558219909668 9.583374977111816 C 2.742388248443604 7.819254398345947 4.000798225402832 6.233424663543701 5.604838371276855 4.869964599609375 C 8.92006778717041 2.051954507827759 13.33296775817871 0.5000045299530029 18.0306282043457 0.5000045299530029 C 22.7282886505127 0.5000045299530029 27.14118766784668 2.051954507827759 30.45641899108887 4.869964599609375 C 32.06045913696289 6.233424663543701 33.31886672973633 7.819254398345947 34.19669723510742 9.58338451385498 C 35.09275436401367 11.38416385650635 35.55168151855469 13.29524803161621 35.56111145019531 15.26442432403564 Z" stroke="none"/>
        <path d="M 35.04850006103516 14.76442432403564 C 34.97040939331055 13.0495719909668 34.53425979614258 11.38412094116211 33.74904632568359 9.806124687194824 C 32.90153884887695 8.102914810180664 31.68478775024414 6.570324420928955 30.13258743286133 5.250924587249756 C 26.90765762329102 2.509674549102783 22.60976791381836 1.000004529953003 18.0306282043457 1.000004529953003 C 13.45148849487305 1.000004529953003 9.153597831726074 2.509674549102783 5.928668022155762 5.250924587249756 C 4.376468181610107 6.570324420928955 3.15971827507019 8.102914810180664 2.31220817565918 9.806124687194824 C 1.526997804641724 11.3841381072998 1.090847253799438 13.04958629608154 1.012756109237671 14.76442432403564 L 35.04850006103516 14.76442432403564 M 36.05393981933594 15.76442432403564 L 0.0073082041926682 15.76442432403564 C 0.002158204326406121 15.60629463195801 -1.795654270608793e-06 15.45917415618896 -1.795654270608793e-06 15.32627487182617 C -1.795654270608793e-06 13.25726413726807 0.4767182171344757 11.25013446807861 1.416918158531189 9.360634803771973 C 2.325048208236694 7.535604476928711 3.625108242034912 5.896544456481934 5.281008243560791 4.488994598388672 C 8.686548233032227 1.594224572181702 13.21444797515869 4.546203399513615e-06 18.0306282043457 4.546203399513615e-06 C 22.8468074798584 4.546203399513615e-06 27.37470817565918 1.594224572181702 30.78024864196777 4.488994598388672 C 32.43614959716797 5.896544456481934 33.73620986938477 7.535604476928711 34.64433670043945 9.360634803771973 C 35.58454895019531 11.25013446807861 36.06125640869141 13.25726413726807 36.06125640869141 15.32627487182617 C 36.06125640869141 15.47001457214355 36.05880737304688 15.61713409423828 36.05395889282227 15.76355457305908 L 36.05393981933594 15.76442432403564 Z" stroke="none" fill="#0d0828"/>
      </g>
      <path id="Tracé_2082" data-name="Tracé 2082" d="M-153.883,501.187c11.331-3.626,14.234-7.745,14.234-7.745" transform="translate(203.474 -468.702)" fill="none" stroke="#feeddf" stroke-width="1"/>
      <line id="Ligne_7" data-name="Ligne 7" x1="3.606" y1="7.212" transform="translate(2.155 22.989)" fill="none" stroke="#feeddf" stroke-width="1"/>
      <g id="Ellipse_3" data-name="Ellipse 3" transform="translate(61.522 22)" fill="#fa4d3d" stroke="#feeddf" stroke-width="1">
        <ellipse cx="2" cy="1.5" rx="2" ry="1.5" stroke="none"/>
        <ellipse cx="2" cy="1.5" rx="1.5" ry="1" fill="none"/>
      </g>
      <g id="Ellipse_4" data-name="Ellipse 4" transform="translate(-0.478 21)" fill="#fa4d3d" stroke="#feeddf" stroke-width="1">
        <ellipse cx="2.5" cy="1.5" rx="2.5" ry="1.5" stroke="none"/>
        <ellipse cx="2.5" cy="1.5" rx="2" ry="1" fill="none"/>
      </g>
      <line id="Ligne_8" data-name="Ligne 8" x1="9.015" y1="3.606" transform="translate(5.761 30.202)" fill="none" stroke="#feeddf" stroke-width="1"/>
    </g>
  </g>
</svg>
