<svg id="baseline-format_color_fill-24px" xmlns="http://www.w3.org/2000/svg" width="59.327" height="59.327" viewBox="0 0 59.327 59.327">
  <path id="Tracé_1253" data-name="Tracé 1253" d="M0,0H59.327V59.327H0Z" fill="none"/>
  <path id="Tracé_1254" data-name="Tracé 1254" d="M36.523,22.1,14.424,0,10.939,3.485l5.883,5.883L4.091,22.1a3.685,3.685,0,0,0,0,5.241l13.6,13.6a3.7,3.7,0,0,0,5.241,0l13.6-13.6a3.685,3.685,0,0,0,0-5.241ZM8.467,24.72,20.307,12.879,32.148,24.72Zm34.088,3.708s-4.944,5.364-4.944,8.652a4.944,4.944,0,1,0,9.888,0C47.5,33.792,42.555,28.427,42.555,28.427Z" transform="translate(4.412)" fill="#feeddf"/>
  <path id="Tracé_1255" data-name="Tracé 1255" d="M0,20H59.327v9.888H0Z" transform="translate(0 29.439)" fill="#feeddf"/>
</svg>
