<svg xmlns="http://www.w3.org/2000/svg" width="80" height="80" viewBox="0 0 80 80">
  <g id="Groupe_650" data-name="Groupe 650" transform="translate(-4564 -3763)">
    <rect id="Rectangle_1157" data-name="Rectangle 1157" width="80" height="80" transform="translate(4564 3763)" fill="none"/>
    <path id="Exclusion_3" data-name="Exclusion 3" d="M26.479,76.965A25.962,25.962,0,0,1,16.291,74.9a26.356,26.356,0,0,1-8.366-5.647,26.832,26.832,0,0,1-5.708-8.409A27.2,27.2,0,0,1,0,50.494c-.079-4.608,1.219-10.13,3.858-16.412a110.818,110.818,0,0,1,8.826-16.41A176.225,176.225,0,0,1,25.63,0l.011.011A175.973,175.973,0,0,1,39.173,17.2a110.649,110.649,0,0,1,9.383,16.087c2.853,6.185,4.34,11.657,4.419,16.265a27.216,27.216,0,0,1-1.9,10.528,26.867,26.867,0,0,1-5.526,8.662,26.37,26.37,0,0,1-8.319,5.919,26,26,0,0,1-10.279,2.3C26.793,76.963,26.638,76.965,26.479,76.965Zm6.774-22.28a5.741,5.741,0,1,0,5.644,5.74A5.7,5.7,0,0,0,33.253,54.685ZM33.7,32.333,16.063,63.4l2.444,1.435,17.638-31.07Zm-17.38,2.261a5.741,5.741,0,1,0,5.644,5.74A5.7,5.7,0,0,0,16.321,34.594Z" transform="translate(4577.714 3764.458)" fill="#feeddf"/>
  </g>
</svg>
