<svg xmlns="http://www.w3.org/2000/svg" width="254.13" height="147" viewBox="0 0 254.13 147">
  <g id="Groupe_680" data-name="Groupe 680" transform="translate(-32.829 -38)">
    <g id="Groupe_519" data-name="Groupe 519" transform="translate(1045.829 -1123)">
      <g id="Groupe_518" data-name="Groupe 518" transform="translate(-1013 1161)">
        <path id="Tracé_1" data-name="Tracé 1" d="M0,0H146.171V146.171H0Z" transform="translate(0 0)" fill="#0d0828"/>
        <circle id="Ellipse_116" data-name="Ellipse 116" cx="0.146" cy="0.146" r="0.146" transform="translate(128.631 40.493)" fill="#fff"/>
        <circle id="Ellipse_92" data-name="Ellipse 92" cx="0.146" cy="0.146" r="0.146" transform="translate(91.957 89.292)" fill="#fff"/>
        <ellipse id="Ellipse_109" data-name="Ellipse 109" cy="0.5" ry="0.5" transform="translate(116.171 126)" fill="#fff"/>
        <circle id="Ellipse_85" data-name="Ellipse 85" cx="0.146" cy="0.146" r="0.146" transform="translate(65.477 74.756)" fill="#fff"/>
        <circle id="Ellipse_99" data-name="Ellipse 99" cx="0.146" cy="0.146" r="0.146" transform="translate(72.939 116.807)" fill="#fff"/>
        <circle id="Ellipse_89" data-name="Ellipse 89" cx="0.146" cy="0.146" r="0.146" transform="translate(41.405 89.033)" fill="#fff"/>
        <ellipse id="Ellipse_113" data-name="Ellipse 113" cy="0.5" ry="0.5" transform="translate(119.171 5)" fill="#fff"/>
        <circle id="Ellipse_114" data-name="Ellipse 114" cx="0.146" cy="0.146" r="0.146" transform="translate(121.322 58.403)" fill="#fff"/>
        <circle id="Ellipse_93" data-name="Ellipse 93" cx="0.146" cy="0.146" r="0.146" transform="translate(96.049 40.234)" fill="#fff"/>
        <ellipse id="Ellipse_122" data-name="Ellipse 122" cx="0.5" rx="0.5" transform="translate(138.171 141)" fill="#fff"/>
        <circle id="Ellipse_119" data-name="Ellipse 119" transform="translate(135.171 12)" fill="#fff"/>
        <circle id="Ellipse_123" data-name="Ellipse 123" cx="0.146" cy="0.146" r="0.146" transform="translate(142.371 64.374)" fill="#fff"/>
        <circle id="Ellipse_82" data-name="Ellipse 82" cx="0.146" cy="0.146" r="0.146" transform="translate(35.146 65.671)" fill="#fff"/>
        <circle id="Ellipse_100" data-name="Ellipse 100" cx="0.146" cy="0.146" r="0.146" transform="translate(64.273 114.598)" fill="#fff"/>
        <ellipse id="Ellipse_110" data-name="Ellipse 110" cy="0.5" ry="0.5" transform="translate(116.171 129)" fill="#fff"/>
        <circle id="Ellipse_117" data-name="Ellipse 117" cx="0.146" cy="0.146" r="0.146" transform="translate(128.923 98.377)" fill="#fff"/>
        <circle id="Ellipse_83" data-name="Ellipse 83" cx="0.146" cy="0.146" r="0.146" transform="translate(69.329 52.174)" fill="#fff"/>
        <circle id="Ellipse_105" data-name="Ellipse 105" cx="0.146" cy="0.146" r="0.146" transform="translate(116.029 23.68)" fill="#fff"/>
        <circle id="Ellipse_102" data-name="Ellipse 102" cx="0.146" cy="0.146" r="0.146" transform="translate(30.813 118.691)" fill="#fff"/>
        <circle id="Ellipse_95" data-name="Ellipse 95" cx="0.146" cy="0.146" r="0.146" transform="translate(100.382 58.144)" fill="#fff"/>
        <circle id="Ellipse_94" data-name="Ellipse 94" cx="0.146" cy="0.146" r="0.146" transform="translate(14.325 98.118)" fill="#fff"/>
        <circle id="Ellipse_101" data-name="Ellipse 101" cx="0.146" cy="0.146" r="0.146" transform="translate(110.252 74.497)" fill="#fff"/>
        <circle id="Ellipse_96" data-name="Ellipse 96" cx="0.146" cy="0.146" r="0.146" transform="translate(88.587 108.241)" fill="#fff"/>
        <circle id="Ellipse_90" data-name="Ellipse 90" cx="0.146" cy="0.146" r="0.146" transform="translate(87.624 19.002)" fill="#fff"/>
        <circle id="Ellipse_71" data-name="Ellipse 71" cx="0.146" cy="0.146" r="0.146" transform="translate(29.609 23.387)" fill="#fff"/>
        <circle id="Ellipse_76" data-name="Ellipse 76" cx="0.146" cy="0.146" r="0.146" transform="translate(38.516 40.234)" fill="#fff"/>
        <circle id="Ellipse_78" data-name="Ellipse 78" cx="0.146" cy="0.146" r="0.146" transform="translate(60.903 30.111)" fill="#fff"/>
        <ellipse id="Ellipse_72" data-name="Ellipse 72" cx="0.5" rx="0.5" transform="translate(30.171 5)" fill="#fff"/>
        <ellipse id="Ellipse_107" data-name="Ellipse 107" cx="0.5" rx="0.5" transform="translate(14.171 133)" fill="#fff"/>
        <circle id="Ellipse_79" data-name="Ellipse 79" cx="0.146" cy="0.146" r="0.146" transform="translate(24.849 50.616)" fill="#fff"/>
        <circle id="Ellipse_73" data-name="Ellipse 73" transform="translate(12.171 29)" fill="#fff"/>
        <ellipse id="Ellipse_70" data-name="Ellipse 70" cx="0.5" rx="0.5" transform="translate(4.171 11)" fill="#fff"/>
        <circle id="Ellipse_74" data-name="Ellipse 74" transform="translate(31.171 15)" fill="#fff"/>
        <circle id="Ellipse_75" data-name="Ellipse 75" cx="0.146" cy="0.146" r="0.146" transform="translate(6.432 35.821)" fill="#fff"/>
        <circle id="Ellipse_80" data-name="Ellipse 80" cx="0.146" cy="0.146" r="0.146" transform="translate(59.7 6.724)" fill="#fff"/>
        <circle id="Ellipse_103" data-name="Ellipse 103" cx="0.439" cy="0.439" r="0.439" transform="translate(88.043 117.814)" fill="#fff"/>
        <circle id="Ellipse_98" data-name="Ellipse 98" cx="0.439" cy="0.439" r="0.439" transform="translate(107.768 36.064)" fill="#fff"/>
        <circle id="Ellipse_115" data-name="Ellipse 115" cx="0.5" cy="0.5" r="0.5" transform="translate(126.171 138)" fill="#fff"/>
        <circle id="Ellipse_86" data-name="Ellipse 86" cx="0.439" cy="0.439" r="0.439" transform="translate(9.94 74.982)" fill="#fff"/>
        <circle id="Ellipse_120" data-name="Ellipse 120" cx="0.439" cy="0.439" r="0.439" transform="translate(135.647 35.545)" fill="#fff"/>
        <ellipse id="Ellipse_106" data-name="Ellipse 106" cy="0.5" ry="0.5" transform="translate(7.171 129)" fill="#fff"/>
        <circle id="Ellipse_77" data-name="Ellipse 77" cx="0.439" cy="0.439" r="0.439" transform="translate(45.465 30.404)" fill="#fff"/>
        <circle id="Ellipse_97" data-name="Ellipse 97" cx="0.439" cy="0.439" r="0.439" transform="translate(53.643 107.414)" fill="#fff"/>
        <circle id="Ellipse_88" data-name="Ellipse 88" cx="0.292" cy="0.292" r="0.292" transform="translate(82.539 40.743)" fill="#fff"/>
        <circle id="Ellipse_81" data-name="Ellipse 81" cx="0.292" cy="0.292" r="0.292" transform="translate(48.128 51.643)" fill="#fff"/>
        <circle id="Ellipse_112" data-name="Ellipse 112" cx="0.292" cy="0.292" r="0.292" transform="translate(76.042 140.324)" fill="#fff"/>
        <circle id="Ellipse_108" data-name="Ellipse 108" cx="0.292" cy="0.292" r="0.292" transform="translate(31.042 133.016)" fill="#fff"/>
        <circle id="Ellipse_121" data-name="Ellipse 121" cx="0.292" cy="0.292" r="0.292" transform="translate(134.77 116.262)" fill="#fff"/>
        <circle id="Ellipse_104" data-name="Ellipse 104" cx="0.292" cy="0.292" r="0.292" transform="translate(113.582 108.476)" fill="#fff"/>
        <ellipse id="Ellipse_118" data-name="Ellipse 118" cx="0.5" rx="0.5" transform="translate(132.171 27)" fill="#fff"/>
        <circle id="Ellipse_84" data-name="Ellipse 84" cx="0.292" cy="0.292" r="0.292" transform="translate(69.063 18.418)" fill="#fff"/>
        <circle id="Ellipse_87" data-name="Ellipse 87" cx="0.292" cy="0.292" r="0.292" transform="translate(71.47 69.549)" fill="#fff"/>
        <circle id="Ellipse_111" data-name="Ellipse 111" cx="0.292" cy="0.292" r="0.292" transform="translate(116.645 80.449)" fill="#fff"/>
        <circle id="Ellipse_91" data-name="Ellipse 91" cx="0.292" cy="0.292" r="0.292" transform="translate(89.999 7.016)" fill="#fff"/>
      </g>
      <g id="Groupe_517" data-name="Groupe 517" transform="translate(-979.088 1171.524)">
        <line id="Ligne_1" data-name="Ligne 1" x1="28.594" y2="22.51" transform="translate(3.529 4.563)" fill="none" stroke="#fafafa" stroke-width="1"/>
        <line id="Ligne_2" data-name="Ligne 2" x1="1.825" y2="26.16" transform="translate(1.704 27.073)" fill="none" stroke="#fafafa" stroke-width="1"/>
        <line id="Ligne_3" data-name="Ligne 3" x1="10.951" y1="18.86" transform="translate(1.704 53.233)" fill="none" stroke="#fafafa" stroke-width="1"/>
        <line id="Ligne_4" data-name="Ligne 4" x2="17.035" transform="translate(12.655 72.093)" fill="none" stroke="#fafafa" stroke-width="1"/>
        <line id="Ligne_10" data-name="Ligne 10" x1="1.217" y1="16.426" transform="translate(15.697 73.918)" fill="none" stroke="#fafafa" stroke-width="1"/>
        <line id="Ligne_11" data-name="Ligne 11" y2="15.818" transform="translate(16.913 90.344)" fill="none" stroke="#fafafa" stroke-width="1"/>
        <line id="Ligne_12" data-name="Ligne 12" x1="20.076" y1="6.084" transform="translate(16.913 106.162)" fill="none" stroke="#fafafa" stroke-width="1"/>
        <line id="Ligne_13" data-name="Ligne 13" y1="6.084" x2="22.51" transform="translate(36.99 106.162)" fill="none" stroke="#fafafa" stroke-width="1"/>
        <line id="Ligne_14" data-name="Ligne 14" y2="15.818" transform="translate(59.5 90.344)" fill="none" stroke="#fafafa" stroke-width="1"/>
        <line id="Ligne_15" data-name="Ligne 15" y1="18.251" transform="translate(59.5 72.093)" fill="none" stroke="#fafafa" stroke-width="1"/>
        <line id="Ligne_16" data-name="Ligne 16" x1="21.902" transform="translate(37.598 90.344)" fill="none" stroke="#fafafa" stroke-width="0.5"/>
        <line id="Ligne_17" data-name="Ligne 17" x2="21.293" transform="translate(16.305 90.344)" fill="none" stroke="#fafafa" stroke-width="0.5"/>
        <line id="Ligne_5" data-name="Ligne 5" x1="13.993" transform="translate(29.689 72.093)" fill="none" stroke="#fafafa" stroke-width="1"/>
        <line id="Ligne_6" data-name="Ligne 6" x2="15.818" transform="translate(43.682 72.093)" fill="none" stroke="#fafafa" stroke-width="1"/>
        <line id="Ligne_7" data-name="Ligne 7" x1="15.818" y2="20.685" transform="translate(59.5 51.408)" fill="none" stroke="#fafafa" stroke-width="1"/>
        <line id="Ligne_8" data-name="Ligne 8" x1="9.734" y1="32.852" transform="translate(65.584 17.947)" fill="none" stroke="#fafafa" stroke-width="1"/>
        <line id="Ligne_9" data-name="Ligne 9" x2="29.202" y2="13.384" transform="translate(36.382 4.563)" fill="none" stroke="#fafafa" stroke-width="1"/>
        <circle id="Ellipse_3" data-name="Ellipse 3" cx="6" cy="6" r="6" transform="translate(30.26 0.476)" fill="#fa7575"/>
        <ellipse id="Ellipse_69" data-name="Ellipse 69" cx="6" cy="6.5" rx="6" ry="6.5" transform="translate(53.26 65.476)" fill="#f1881e"/>
        <circle id="Ellipse_2" data-name="Ellipse 2" cx="6" cy="6" r="6" transform="translate(9.26 66.476)" fill="#fa7575"/>
        <ellipse id="Ellipse_4" data-name="Ellipse 4" cx="6" cy="6.5" rx="6" ry="6.5" transform="translate(31.26 105.476)" fill="#827081"/>
        <circle id="Ellipse_7" data-name="Ellipse 7" cx="3" cy="3" r="3" transform="translate(35.26 87.476)" fill="#fad1be"/>
        <ellipse id="Ellipse_1" data-name="Ellipse 1" cx="3" cy="3.5" rx="3" ry="3.5" transform="translate(56.26 102.476)" fill="#fa4d3d"/>
        <circle id="Ellipse_11" data-name="Ellipse 11" cx="1.5" cy="1.5" r="1.5" transform="translate(15.26 88.476)" fill="#daceda"/>
        <circle id="Ellipse_13" data-name="Ellipse 13" cx="1.5" cy="1.5" r="1.5" transform="translate(58.26 88.476)" fill="#f88876"/>
        <ellipse id="Ellipse_9" data-name="Ellipse 9" cx="3" cy="3.5" rx="3" ry="3.5" transform="translate(14.26 102.476)" fill="#f88876"/>
        <circle id="Ellipse_5" data-name="Ellipse 5" cx="3" cy="3" r="3" transform="translate(0.26 23.476)" fill="#feeddf"/>
        <circle id="Ellipse_15" data-name="Ellipse 15" cx="1.5" cy="1.5" r="1.5" transform="translate(0.26 51.476)" fill="#c66e7c"/>
        <circle id="Ellipse_6" data-name="Ellipse 6" cx="3" cy="3" r="3" transform="translate(72.26 47.476)" fill="#684651"/>
        <circle id="Ellipse_8" data-name="Ellipse 8" cx="3" cy="3" r="3" transform="translate(62.26 14.476)" fill="#28666e"/>
        <circle id="Ellipse_10" data-name="Ellipse 10" cx="1.5" cy="1.5" r="1.5" transform="translate(42.26 70.476)" fill="#feeddf"/>
        <ellipse id="Ellipse_12" data-name="Ellipse 12" cx="2" cy="1.5" rx="2" ry="1.5" transform="translate(28.26 70.476)" fill="#f1881e"/>
      </g>
    </g>
    <text id="Maïa" transform="translate(209.958 156)" fill="#feeddf" font-size="65" font-family="Parisienne-Regular, Parisienne" letter-spacing="0.01em"><tspan x="-74.878" y="0">Maïa</tspan></text>
  </g>
</svg>
