<svg xmlns="http://www.w3.org/2000/svg" width="147" height="146" viewBox="0 0 147 146">
  <g id="Groupe_675" data-name="Groupe 675" transform="translate(-1675 -268)">
    <rect id="Rectangle_3113" data-name="Rectangle 3113" width="147" height="146" rx="30" transform="translate(1675 268)" fill="#0d0828"/>
    <circle id="Ellipse_116" data-name="Ellipse 116" cx="0.146" cy="0.146" r="0.146" transform="translate(1803.631 308.493)" fill="#fff"/>
    <circle id="Ellipse_92" data-name="Ellipse 92" cx="0.146" cy="0.146" r="0.146" transform="translate(1766.957 357.292)" fill="#fff"/>
    <ellipse id="Ellipse_109" data-name="Ellipse 109" cy="0.5" ry="0.5" transform="translate(1791.171 394)" fill="#fff"/>
    <circle id="Ellipse_85" data-name="Ellipse 85" cx="0.146" cy="0.146" r="0.146" transform="translate(1740.477 342.756)" fill="#fff"/>
    <circle id="Ellipse_99" data-name="Ellipse 99" cx="0.146" cy="0.146" r="0.146" transform="translate(1747.939 384.807)" fill="#fff"/>
    <circle id="Ellipse_89" data-name="Ellipse 89" cx="0.146" cy="0.146" r="0.146" transform="translate(1716.405 357.033)" fill="#fff"/>
    <ellipse id="Ellipse_113" data-name="Ellipse 113" cy="0.5" ry="0.5" transform="translate(1794.171 273)" fill="#fff"/>
    <circle id="Ellipse_114" data-name="Ellipse 114" cx="0.146" cy="0.146" r="0.146" transform="translate(1796.322 326.403)" fill="#fff"/>
    <circle id="Ellipse_93" data-name="Ellipse 93" cx="0.146" cy="0.146" r="0.146" transform="translate(1771.049 308.234)" fill="#fff"/>
    <ellipse id="Ellipse_122" data-name="Ellipse 122" cx="0.5" rx="0.5" transform="translate(1813.171 409)" fill="#fff"/>
    <circle id="Ellipse_119" data-name="Ellipse 119" transform="translate(1810.171 280)" fill="#fff"/>
    <circle id="Ellipse_123" data-name="Ellipse 123" cx="0.146" cy="0.146" r="0.146" transform="translate(1817.371 332.374)" fill="#fff"/>
    <circle id="Ellipse_82" data-name="Ellipse 82" cx="0.146" cy="0.146" r="0.146" transform="translate(1710.146 333.671)" fill="#fff"/>
    <circle id="Ellipse_100" data-name="Ellipse 100" cx="0.146" cy="0.146" r="0.146" transform="translate(1739.273 382.598)" fill="#fff"/>
    <ellipse id="Ellipse_110" data-name="Ellipse 110" cy="0.5" ry="0.5" transform="translate(1791.171 397)" fill="#fff"/>
    <circle id="Ellipse_117" data-name="Ellipse 117" cx="0.146" cy="0.146" r="0.146" transform="translate(1803.923 366.377)" fill="#fff"/>
    <circle id="Ellipse_83" data-name="Ellipse 83" cx="0.146" cy="0.146" r="0.146" transform="translate(1744.329 320.174)" fill="#fff"/>
    <circle id="Ellipse_105" data-name="Ellipse 105" cx="0.646" cy="0.646" r="0.646" transform="translate(1791 291.717) rotate(-13)" fill="#fff"/>
    <circle id="Ellipse_102" data-name="Ellipse 102" cx="0.646" cy="0.646" r="0.646" transform="translate(1705.813 386.691)" fill="#fff"/>
    <circle id="Ellipse_95" data-name="Ellipse 95" cx="0.146" cy="0.146" r="0.146" transform="translate(1775.382 326.144)" fill="#fff"/>
    <circle id="Ellipse_94" data-name="Ellipse 94" cx="0.146" cy="0.146" r="0.146" transform="translate(1689.325 366.118)" fill="#fff"/>
    <circle id="Ellipse_101" data-name="Ellipse 101" cx="0.146" cy="0.146" r="0.146" transform="translate(1785.252 342.497)" fill="#fff"/>
    <circle id="Ellipse_96" data-name="Ellipse 96" cx="0.146" cy="0.146" r="0.146" transform="translate(1763.587 376.241)" fill="#fff"/>
    <circle id="Ellipse_90" data-name="Ellipse 90" cx="0.146" cy="0.146" r="0.146" transform="translate(1762.624 287.002)" fill="#fff"/>
    <circle id="Ellipse_71" data-name="Ellipse 71" cx="0.646" cy="0.646" r="0.646" transform="translate(1704.609 291.387)" fill="#fff"/>
    <circle id="Ellipse_76" data-name="Ellipse 76" cx="0.146" cy="0.146" r="0.146" transform="translate(1713.516 308.234)" fill="#fff"/>
    <circle id="Ellipse_78" data-name="Ellipse 78" cx="0.146" cy="0.146" r="0.146" transform="translate(1735.903 298.111)" fill="#fff"/>
    <ellipse id="Ellipse_72" data-name="Ellipse 72" cx="0.5" rx="0.5" transform="translate(1705.171 273)" fill="#fff"/>
    <ellipse id="Ellipse_107" data-name="Ellipse 107" cx="0.5" rx="0.5" transform="translate(1689.171 401)" fill="#fff"/>
    <circle id="Ellipse_79" data-name="Ellipse 79" cx="0.146" cy="0.146" r="0.146" transform="translate(1699.849 318.616)" fill="#fff"/>
    <circle id="Ellipse_73" data-name="Ellipse 73" transform="translate(1687.171 297)" fill="#fff"/>
    <ellipse id="Ellipse_70" data-name="Ellipse 70" cx="0.5" rx="0.5" transform="translate(1679.171 279)" fill="#fff"/>
    <circle id="Ellipse_74" data-name="Ellipse 74" transform="translate(1706.171 283)" fill="#fff"/>
    <circle id="Ellipse_75" data-name="Ellipse 75" cx="0.146" cy="0.146" r="0.146" transform="translate(1681.432 303.821)" fill="#fff"/>
    <circle id="Ellipse_80" data-name="Ellipse 80" cx="0.146" cy="0.146" r="0.146" transform="translate(1734.7 274.724)" fill="#fff"/>
    <circle id="Ellipse_103" data-name="Ellipse 103" cx="0.439" cy="0.439" r="0.439" transform="translate(1763.043 385.814)" fill="#fff"/>
    <circle id="Ellipse_98" data-name="Ellipse 98" cx="0.439" cy="0.439" r="0.439" transform="translate(1782.768 304.064)" fill="#fff"/>
    <circle id="Ellipse_115" data-name="Ellipse 115" cx="0.5" cy="0.5" r="0.5" transform="translate(1793.171 396)" fill="#fff"/>
    <circle id="Ellipse_86" data-name="Ellipse 86" cx="0.939" cy="0.939" r="0.939" transform="translate(1684.94 342.982)" fill="#fff"/>
    <circle id="Ellipse_120" data-name="Ellipse 120" cx="0.439" cy="0.439" r="0.439" transform="translate(1810.647 303.545)" fill="#fff"/>
    <ellipse id="Ellipse_106" data-name="Ellipse 106" cy="0.5" ry="0.5" transform="translate(1682.171 397)" fill="#fff"/>
    <circle id="Ellipse_77" data-name="Ellipse 77" cx="0.439" cy="0.439" r="0.439" transform="translate(1720.465 298.404)" fill="#fff"/>
    <circle id="Ellipse_97" data-name="Ellipse 97" cx="0.439" cy="0.439" r="0.439" transform="translate(1728.643 375.414)" fill="#fff"/>
    <circle id="Ellipse_88" data-name="Ellipse 88" cx="0.292" cy="0.292" r="0.292" transform="translate(1757.539 308.743)" fill="#fff"/>
    <circle id="Ellipse_81" data-name="Ellipse 81" cx="0.292" cy="0.292" r="0.292" transform="translate(1723.128 319.643)" fill="#fff"/>
    <circle id="Ellipse_112" data-name="Ellipse 112" cx="0.292" cy="0.292" r="0.292" transform="translate(1751.042 402.324)" fill="#fff"/>
    <circle id="Ellipse_108" data-name="Ellipse 108" cx="0.292" cy="0.292" r="0.292" transform="translate(1706.042 401.016)" fill="#fff"/>
    <circle id="Ellipse_121" data-name="Ellipse 121" cx="0.292" cy="0.292" r="0.292" transform="translate(1809.77 384.262)" fill="#fff"/>
    <circle id="Ellipse_104" data-name="Ellipse 104" cx="0.292" cy="0.292" r="0.292" transform="translate(1788.582 376.476)" fill="#fff"/>
    <ellipse id="Ellipse_118" data-name="Ellipse 118" cx="0.5" rx="0.5" transform="translate(1807.171 295)" fill="#fff"/>
    <circle id="Ellipse_84" data-name="Ellipse 84" cx="0.292" cy="0.292" r="0.292" transform="translate(1744.063 286.418)" fill="#fff"/>
    <circle id="Ellipse_87" data-name="Ellipse 87" cx="0.292" cy="0.292" r="0.292" transform="translate(1746.47 337.549)" fill="#fff"/>
    <circle id="Ellipse_111" data-name="Ellipse 111" cx="0.792" cy="0.792" r="0.792" transform="translate(1791.645 348.449)" fill="#fff"/>
    <circle id="Ellipse_91" data-name="Ellipse 91" cx="0.292" cy="0.292" r="0.292" transform="translate(1764.999 275.016)" fill="#fff"/>
    <g id="Groupe_517" data-name="Groupe 517" transform="translate(1708.912 278.524)">
      <line id="Ligne_1" data-name="Ligne 1" x1="28.594" y2="22.51" transform="translate(3.529 4.563)" fill="none" stroke="#fafafa" stroke-width="1"/>
      <line id="Ligne_2" data-name="Ligne 2" x1="1.825" y2="26.16" transform="translate(1.704 27.073)" fill="none" stroke="#fafafa" stroke-width="1"/>
      <line id="Ligne_3" data-name="Ligne 3" x1="10.951" y1="18.86" transform="translate(1.704 53.233)" fill="none" stroke="#fafafa" stroke-width="1"/>
      <line id="Ligne_4" data-name="Ligne 4" x2="17.035" transform="translate(12.655 72.093)" fill="none" stroke="#fafafa" stroke-width="1"/>
      <line id="Ligne_10" data-name="Ligne 10" x1="1.217" y1="16.426" transform="translate(15.697 73.918)" fill="none" stroke="#fafafa" stroke-width="1"/>
      <line id="Ligne_11" data-name="Ligne 11" y2="15.818" transform="translate(16.913 90.344)" fill="none" stroke="#fafafa" stroke-width="1"/>
      <line id="Ligne_12" data-name="Ligne 12" x1="20.076" y1="6.084" transform="translate(16.913 106.162)" fill="none" stroke="#fafafa" stroke-width="1"/>
      <line id="Ligne_13" data-name="Ligne 13" y1="6.084" x2="22.51" transform="translate(36.99 106.162)" fill="none" stroke="#fafafa" stroke-width="1"/>
      <line id="Ligne_14" data-name="Ligne 14" y2="15.818" transform="translate(59.5 90.344)" fill="none" stroke="#fafafa" stroke-width="1"/>
      <line id="Ligne_15" data-name="Ligne 15" y1="18.251" transform="translate(59.5 72.093)" fill="none" stroke="#fafafa" stroke-width="1"/>
      <line id="Ligne_16" data-name="Ligne 16" x1="21.902" transform="translate(37.598 90.344)" fill="none" stroke="#fafafa" stroke-width="0.5"/>
      <line id="Ligne_17" data-name="Ligne 17" x2="21.293" transform="translate(16.305 90.344)" fill="none" stroke="#fafafa" stroke-width="0.5"/>
      <line id="Ligne_5" data-name="Ligne 5" x1="13.993" transform="translate(29.689 72.093)" fill="none" stroke="#fafafa" stroke-width="1"/>
      <line id="Ligne_6" data-name="Ligne 6" x2="15.818" transform="translate(43.682 72.093)" fill="none" stroke="#fafafa" stroke-width="1"/>
      <line id="Ligne_7" data-name="Ligne 7" x1="15.818" y2="20.685" transform="translate(59.5 51.408)" fill="none" stroke="#fafafa" stroke-width="1"/>
      <line id="Ligne_8" data-name="Ligne 8" x1="9.734" y1="32.852" transform="translate(65.584 17.947)" fill="none" stroke="#fafafa" stroke-width="1"/>
      <line id="Ligne_9" data-name="Ligne 9" x2="29.202" y2="13.384" transform="translate(36.382 4.563)" fill="none" stroke="#fafafa" stroke-width="1"/>
      <circle id="Ellipse_3" data-name="Ellipse 3" cx="6" cy="6" r="6" transform="translate(30.26 0.476)" fill="#fa7575"/>
      <ellipse id="Ellipse_69" data-name="Ellipse 69" cx="6" cy="6.5" rx="6" ry="6.5" transform="translate(53.26 65.476)" fill="#f1881e"/>
      <circle id="Ellipse_2" data-name="Ellipse 2" cx="6" cy="6" r="6" transform="translate(9.26 66.476)" fill="#fa7575"/>
      <ellipse id="Ellipse_4" data-name="Ellipse 4" cx="6" cy="6.5" rx="6" ry="6.5" transform="translate(31.26 105.476)" fill="#827081"/>
      <circle id="Ellipse_7" data-name="Ellipse 7" cx="3" cy="3" r="3" transform="translate(35.26 87.476)" fill="#fad1be"/>
      <ellipse id="Ellipse_1" data-name="Ellipse 1" cx="3" cy="3.5" rx="3" ry="3.5" transform="translate(56.26 102.476)" fill="#fa4d3d"/>
      <circle id="Ellipse_11" data-name="Ellipse 11" cx="1.5" cy="1.5" r="1.5" transform="translate(15.26 88.476)" fill="#daceda"/>
      <circle id="Ellipse_13" data-name="Ellipse 13" cx="1.5" cy="1.5" r="1.5" transform="translate(58.26 88.476)" fill="#f88876"/>
      <ellipse id="Ellipse_9" data-name="Ellipse 9" cx="3" cy="3.5" rx="3" ry="3.5" transform="translate(14.26 102.476)" fill="#f88876"/>
      <circle id="Ellipse_5" data-name="Ellipse 5" cx="3" cy="3" r="3" transform="translate(0.26 23.476)" fill="#feeddf"/>
      <circle id="Ellipse_15" data-name="Ellipse 15" cx="1.5" cy="1.5" r="1.5" transform="translate(0.26 51.476)" fill="#c66e7c"/>
      <circle id="Ellipse_6" data-name="Ellipse 6" cx="3" cy="3" r="3" transform="translate(72.26 47.476)" fill="#684651"/>
      <circle id="Ellipse_8" data-name="Ellipse 8" cx="3" cy="3" r="3" transform="translate(62.26 14.476)" fill="#28666e"/>
      <circle id="Ellipse_10" data-name="Ellipse 10" cx="1.5" cy="1.5" r="1.5" transform="translate(42.26 70.476)" fill="#feeddf"/>
      <ellipse id="Ellipse_12" data-name="Ellipse 12" cx="2" cy="1.5" rx="2" ry="1.5" transform="translate(28.26 70.476)" fill="#f1881e"/>
    </g>
  </g>
</svg>
