<svg xmlns="http://www.w3.org/2000/svg" width="80" height="80" viewBox="0 0 80 80">
  <g id="Groupe_651" data-name="Groupe 651" transform="translate(-4722 -3767)">
    <rect id="Rectangle_1156" data-name="Rectangle 1156" width="80" height="80" transform="translate(4722 3767)" fill="none"/>
    <path id="Tracé_6363" data-name="Tracé 6363" d="M3,26.456V50.607H20.006L41.263,70.734V6.329L20.006,26.456ZM60.4,38.532A18.051,18.051,0,0,0,49.766,22.31v32.4A17.949,17.949,0,0,0,60.4,38.532ZM49.766,3.23v8.292c12.287,3.462,21.257,14.249,21.257,27.01s-8.971,23.548-21.257,27.01v8.292c17.048-3.663,29.76-18.073,29.76-35.3S66.815,6.893,49.766,3.23Z" transform="translate(4720.473 3769.27)" fill="#feeddf"/>
  </g>
</svg>
