<svg xmlns="http://www.w3.org/2000/svg" width="116.5" height="117" viewBox="0 0 116.5 117">
  <g id="Groupe_673" data-name="Groupe 673" transform="translate(-1370 -635)">
    <g id="Groupe_672" data-name="Groupe 672" transform="translate(4179.5 3242.5) rotate(90)">
      <g id="Exclusion_6" data-name="Exclusion 6" transform="translate(-2542 2854.5)" fill="#feeddf">
        <path d="M 50.50029754638672 -103.4996032714844 L -10.49980163574219 -103.4996032714844 L -10.49980163574219 -156.5001068115234 C -10.49980163574219 -158.9811401367188 -8.481331825256348 -160.9996032714844 -6.000301837921143 -160.9996032714844 L 45.99989700317383 -160.9996032714844 C 48.48142623901367 -160.9996032714844 50.50029754638672 -158.9811401367188 50.50029754638672 -156.5001068115234 L 50.50029754638672 -103.4996032714844 Z M -7.500202178955078 -149.0000152587891 L -7.500202178955078 -148.5000152587891 L -7.500202178955078 -104.4999008178711 L -7.500202178955078 -103.9999008178711 L -7.000202178955078 -103.9999008178711 L 46.99979782104492 -103.9999008178711 L 47.49979782104492 -103.9999008178711 L 47.49979782104492 -104.4999008178711 L 47.49979782104492 -148.5 L 47.49979782104492 -149 L 46.99979782104492 -149 L -7.000202178955078 -149.0000152587891 L -7.500202178955078 -149.0000152587891 Z" stroke="none"/>
        <path d="M 50.00029754638672 -103.9996032714844 L 50.00029754638672 -156.5001068115234 C 50.00029754638672 -158.7054443359375 48.20572662353516 -160.4996032714844 45.99989700317383 -160.4996032714844 L -6.000301837921143 -160.4996032714844 C -8.205632209777832 -160.4996032714844 -9.999801635742188 -158.7054443359375 -9.999801635742188 -156.5001068115234 L -9.999801635742188 -103.9996032714844 L -8.000202178955078 -103.9996032714844 L -8.000202178955078 -104.4999008178711 L -8.000202178955078 -148.5000152587891 L -8.000202178955078 -149.5000152587891 L -7.000202178955078 -149.5000152587891 L 46.99979782104492 -149.5 L 47.99979782104492 -149.5 L 47.99979782104492 -148.5 L 47.99979782104492 -104.4999008178711 L 47.99979782104492 -103.9996032714844 L 50.00029754638672 -103.9996032714844 M 51.00029754638672 -102.9985961914062 L 51.00029754638672 -102.9996032714844 L -10.99980163574219 -102.9996032714844 L -10.99980163574219 -156.5001068115234 C -10.99980163574219 -159.2568359375 -8.75703239440918 -161.4996032714844 -6.000301837921143 -161.4996032714844 L 45.99989700317383 -161.4996032714844 C 48.75712966918945 -161.4996032714844 51.00029754638672 -159.2568359375 51.00029754638672 -156.5001068115234 L 51.00029754638672 -102.9996032714844 L 51.00029754638672 -102.9985961914062 Z M -7.000202178955078 -148.5000152587891 L -7.000202178955078 -148.5 L -7.000202178955078 -104.4999008178711 L 46.99979782104492 -104.4999008178711 L 46.99979782104492 -148.5 L -7.000202178955078 -148.5000152587891 Z" stroke="none" fill="#0d0828"/>
      </g>
      <g id="Rectangle_3112" data-name="Rectangle 3112" transform="translate(-2526 2699)" fill="#feeddf" stroke="#0d0828" stroke-width="1">
        <rect width="10" height="2" stroke="none"/>
        <rect x="0.5" y="0.5" width="9" height="1" fill="none"/>
      </g>
    </g>
    <g id="Groupe_670" data-name="Groupe 670" transform="translate(3923 -2058)">
      <g id="Exclusion_5" data-name="Exclusion 5" transform="translate(-2553 2693)" fill="#feeddf">
        <path d="M 56.99971008300781 116.5 L 5.00040340423584 116.5 C 2.518880128860474 116.5 0.5000187158584595 114.4811248779297 0.5000187158584595 111.9996032714844 L 0.5000187158584595 5.000400066375732 C 0.5000187158584595 2.518877029418945 2.518880128860474 0.5 5.00040340423584 0.5 L 56.99971008300781 0.5 C 59.48123550415039 0.5 61.5001106262207 2.518877029418945 61.5001106262207 5.000400066375732 L 61.5001106262207 111.9996032714844 C 61.5001106262207 114.4811248779297 59.48123550415039 116.5 56.99971008300781 116.5 Z M 3.499603271484375 12.49960041046143 L 3.499603271484375 12.99960041046143 L 3.499603271484375 101.9997100830078 L 3.499603271484375 102.4997100830078 L 3.999603271484375 102.4997100830078 L 57.99961853027344 102.4997100830078 L 58.49961853027344 102.4997100830078 L 58.49961853027344 101.9997100830078 L 58.49961853027344 12.99960041046143 L 58.49961853027344 12.49960041046143 L 57.99961853027344 12.49960041046143 L 3.999603271484375 12.49960041046143 L 3.499603271484375 12.49960041046143 Z" stroke="none"/>
        <path d="M 56.99971008300781 116 C 59.20554351806641 116 61.0001106262207 114.2054290771484 61.0001106262207 111.9996032714844 L 61.0001106262207 5.000400066375732 C 61.0001106262207 2.794569253921509 59.20554351806641 1 56.99971008300781 1 L 5.00040340423584 1 C 2.794587850570679 1 1.000018715858459 2.794569253921509 1.000018715858459 5.000400066375732 L 1.000018715858459 111.9996032714844 C 1.000018715858459 114.2054290771484 2.794587850570679 116 5.00040340423584 116 L 56.99971008300781 116 M 2.999603271484375 11.99960041046143 L 3.999603271484375 11.99960041046143 L 57.99961853027344 11.99960041046143 L 58.99961853027344 11.99960041046143 L 58.99961853027344 12.99960041046143 L 58.99961853027344 101.9997100830078 L 58.99961853027344 102.9997100830078 L 57.99961853027344 102.9997100830078 L 3.999603271484375 102.9997100830078 L 2.999603271484375 102.9997100830078 L 2.999603271484375 101.9997100830078 L 2.999603271484375 12.99960041046143 L 2.999603271484375 11.99960041046143 M 56.99971008300781 117 L 5.00040340423584 117 C 2.243172645568848 117 1.869600782811176e-05 114.7568283081055 1.869600782811176e-05 111.9996032714844 L 1.869600782811176e-05 5.000400066375732 C 1.869600782811176e-05 2.24316930770874 2.243172645568848 0 5.00040340423584 0 L 56.99971008300781 0 C 59.75694274902344 0 62.0001106262207 2.24316930770874 62.0001106262207 5.000400066375732 L 62.0001106262207 111.9996032714844 C 62.0001106262207 114.7568283081055 59.75694274902344 117 56.99971008300781 117 Z M 3.999603271484375 12.99960041046143 L 3.999603271484375 101.9997100830078 L 57.99961853027344 101.9997100830078 L 57.99961853027344 12.99960041046143 L 3.999603271484375 12.99960041046143 Z" stroke="none" fill="#0d0828"/>
      </g>
      <g id="Ellipse_155" data-name="Ellipse 155" transform="translate(-2526 2798)" fill="#feeddf" stroke="#0d0828" stroke-width="1">
        <circle cx="4" cy="4" r="4" stroke="none"/>
        <circle cx="4" cy="4" r="3.5" fill="none"/>
      </g>
      <g id="Rectangle_3112-2" data-name="Rectangle 3112" transform="translate(-2526 2699)" fill="#fff" stroke="#0d0828" stroke-width="1">
        <rect width="10" height="2" stroke="none"/>
        <rect x="0.5" y="0.5" width="9" height="1" fill="none"/>
      </g>
    </g>
    <path id="Tracé_6371" data-name="Tracé 6371" d="M16.86,5.4A10.464,10.464,0,0,1,9.96,8,10.492,10.492,0,0,1,0,.78L2.36,0a8,8,0,0,0,7.6,5.5,7.974,7.974,0,0,0,5.12-1.88L11.46,0h9V9Z" transform="translate(1456.183 677.768) rotate(-137)" fill="#feeddf"/>
  </g>
</svg>
