<svg xmlns="http://www.w3.org/2000/svg" width="66" height="66" viewBox="0 0 66 66">
  <g id="Groupe_669" data-name="Groupe 669" transform="translate(-405 -894)">
    <path id="Tracé_6369" data-name="Tracé 6369" d="M46.847,3H9.264C5.787,3,3,6.3,3,10.333V61.667C3,65.7,5.787,69,9.264,69H53.111c3.445,0,6.264-3.3,6.264-7.333v-44ZM31.188,61.667c-5.2,0-9.4-4.913-9.4-11s4.2-11,9.4-11,9.4,4.913,9.4,11S36.387,61.667,31.188,61.667ZM40.583,25H9.264V10.333H40.583Z" transform="translate(408 891)" fill="#feeddf"/>
    <g id="Groupe_668" data-name="Groupe 668" transform="translate(15 404)">
      <rect id="Rectangle_3107" data-name="Rectangle 3107" width="66" height="66" transform="translate(390 490)" fill="none"/>
    </g>
  </g>
</svg>
