<svg xmlns="http://www.w3.org/2000/svg" width="80" height="80" viewBox="0 0 80 80">
  <g id="Groupe_649" data-name="Groupe 649" transform="translate(-4443 -3766)">
    <g id="Groupe_644" data-name="Groupe 644" transform="translate(4469 3767.343)">
      <path id="Union_1" data-name="Union 1" d="M0,58.992A12.006,12.006,0,0,1,6.261,48.445q0-.053,0-.107V7a7,7,0,0,1,7-7h3.488a7,7,0,0,1,7,7V48.338A6.972,6.972,0,0,1,22.223,52.7,12,12,0,1,1,0,58.992Z" transform="translate(-1 -0.343)" fill="#feeddf"/>
      <ellipse id="Ellipse_131" data-name="Ellipse 131" cx="17" cy="16.5" rx="17" ry="16.5" transform="translate(-3 45.657)" fill="#0d0828"/>
      <rect id="Rectangle_282" data-name="Rectangle 282" width="18" height="31" rx="1" transform="translate(5 21.657)" fill="#0d0828"/>
    </g>
    <rect id="Rectangle_1159" data-name="Rectangle 1159" width="80" height="80" transform="translate(4443 3766)" fill="none"/>
  </g>
</svg>
