<svg id="Master" xmlns="http://www.w3.org/2000/svg" width="108" height="108.309" viewBox="0 0 108 108.309">
  <g id="Background" transform="translate(-67 -53.691)">
    <rect id="Blue_Rectangle" data-name="Blue Rectangle" width="108" height="108" transform="translate(67 54)" fill="#0d0828"/>
    <path id="Green_Triangle" data-name="Green Triangle" d="M0,0H108L0,108Z" transform="translate(67 54)" fill="#0d0828"/>
    <g id="Groupe_677" data-name="Groupe 677" transform="translate(-1612.171 -215)">
      <circle id="Ellipse_116" data-name="Ellipse 116" cx="0.146" cy="0.146" r="0.146" transform="translate(1764.078 298.563)" fill="#fff"/>
      <circle id="Ellipse_92" data-name="Ellipse 92" cx="0.146" cy="0.146" r="0.146" transform="translate(1743.379 335.187)" fill="#fff"/>
      <ellipse id="Ellipse_109" data-name="Ellipse 109" cy="0.5" ry="0.5" transform="translate(1761.148 358.092)" fill="#fff"/>
      <circle id="Ellipse_85" data-name="Ellipse 85" cx="0.146" cy="0.146" r="0.146" transform="translate(1724.011 324.277)" fill="#fff"/>
      <circle id="Ellipse_99" data-name="Ellipse 99" cx="0.146" cy="0.146" r="0.146" transform="translate(1729.469 348.899)" fill="#fff"/>
      <circle id="Ellipse_89" data-name="Ellipse 89" cx="0.146" cy="0.146" r="0.146" transform="translate(1706.404 334.992)" fill="#fff"/>
      <ellipse id="Ellipse_113" data-name="Ellipse 113" cy="0.5" ry="0.5" transform="translate(1763.344 273)" fill="#fff"/>
      <circle id="Ellipse_114" data-name="Ellipse 114" cx="0.146" cy="0.146" r="0.146" transform="translate(1764.856 312.004)" fill="#fff"/>
      <circle id="Ellipse_93" data-name="Ellipse 93" cx="0.146" cy="0.146" r="0.146" transform="translate(1746.371 298.368)" fill="#fff"/>
      <ellipse id="Ellipse_122" data-name="Ellipse 122" cx="0.5" rx="0.5" transform="translate(1773.618 373.092)" fill="#fff"/>
      <circle id="Ellipse_119" data-name="Ellipse 119" transform="translate(1770.618 280)" fill="#fff"/>
      <circle id="Ellipse_123" data-name="Ellipse 123" cx="0.146" cy="0.146" r="0.146" transform="translate(1768.818 314.985)" fill="#fff"/>
      <circle id="Ellipse_82" data-name="Ellipse 82" cx="0.146" cy="0.146" r="0.146" transform="translate(1701.826 317.459)" fill="#fff"/>
      <circle id="Ellipse_100" data-name="Ellipse 100" cx="0.146" cy="0.146" r="0.146" transform="translate(1723.13 354.179)" fill="#fff"/>
      <ellipse id="Ellipse_110" data-name="Ellipse 110" cy="0.5" ry="0.5" transform="translate(1761.148 361.092)" fill="#fff"/>
      <circle id="Ellipse_117" data-name="Ellipse 117" cx="0.146" cy="0.146" r="0.146" transform="translate(1764.37 328.496)" fill="#fff"/>
      <circle id="Ellipse_83" data-name="Ellipse 83" cx="0.146" cy="0.146" r="0.146" transform="translate(1726.828 307.329)" fill="#fff"/>
      <circle id="Ellipse_105" data-name="Ellipse 105" cx="0.646" cy="0.646" r="0.646" transform="translate(1760.705 291.717) rotate(-13)" fill="#fff"/>
      <circle id="Ellipse_102" data-name="Ellipse 102" cx="0.646" cy="0.646" r="0.646" transform="translate(1705.813 350.783)" fill="#fff"/>
      <circle id="Ellipse_102-2" data-name="Ellipse 102" cx="0.646" cy="0.646" r="0.646" transform="translate(1764.26 268.691)" fill="#fff"/>
      <circle id="Ellipse_102-3" data-name="Ellipse 102" cx="0.646" cy="0.646" r="0.646" transform="translate(1687.813 291.154)" fill="#fff"/>
      <circle id="Ellipse_102-4" data-name="Ellipse 102" cx="0.646" cy="0.646" r="0.646" transform="translate(1703.715 370.783)" fill="#fff"/>
      <circle id="Ellipse_102-5" data-name="Ellipse 102" cx="0.646" cy="0.646" r="0.646" transform="translate(1777.26 366.783)" fill="#fff"/>
      <circle id="Ellipse_102-6" data-name="Ellipse 102" cx="0.646" cy="0.646" r="0.646" transform="translate(1681.813 342.07)" fill="#fff"/>
      <circle id="Ellipse_95" data-name="Ellipse 95" cx="0.146" cy="0.146" r="0.146" transform="translate(1749.541 311.81)" fill="#fff"/>
      <circle id="Ellipse_94" data-name="Ellipse 94" cx="0.146" cy="0.146" r="0.146" transform="translate(1701.957 343.312)" fill="#fff"/>
      <circle id="Ellipse_101" data-name="Ellipse 101" cx="0.146" cy="0.146" r="0.146" transform="translate(1756.76 324.083)" fill="#fff"/>
      <circle id="Ellipse_96" data-name="Ellipse 96" cx="0.146" cy="0.146" r="0.146" transform="translate(1740.914 349.408)" fill="#fff"/>
      <circle id="Ellipse_90" data-name="Ellipse 90" cx="0.146" cy="0.146" r="0.146" transform="translate(1740.209 287.002)" fill="#fff"/>
      <circle id="Ellipse_71" data-name="Ellipse 71" cx="0.646" cy="0.646" r="0.646" transform="translate(1704.609 291.387)" fill="#fff"/>
      <circle id="Ellipse_76" data-name="Ellipse 76" cx="0.146" cy="0.146" r="0.146" transform="translate(1704.291 298.368)" fill="#fff"/>
      <circle id="Ellipse_78" data-name="Ellipse 78" cx="0.146" cy="0.146" r="0.146" transform="translate(1720.665 290.771)" fill="#fff"/>
      <ellipse id="Ellipse_72" data-name="Ellipse 72" cx="0.5" rx="0.5" transform="translate(1705.171 273)" fill="#fff"/>
      <ellipse id="Ellipse_107" data-name="Ellipse 107" cx="0.5" rx="0.5" transform="translate(1689.171 365.092)" fill="#fff"/>
      <circle id="Ellipse_79" data-name="Ellipse 79" cx="0.146" cy="0.146" r="0.146" transform="translate(1699.849 306.16)" fill="#fff"/>
      <circle id="Ellipse_79-2" data-name="Ellipse 79" cx="0.146" cy="0.146" r="0.146" transform="translate(1699.849 306.16)" fill="#fff"/>
      <circle id="Ellipse_79-3" data-name="Ellipse 79" cx="0.146" cy="0.146" r="0.146" transform="translate(1722.089 376.708)" fill="#fff"/>
      <circle id="Ellipse_79-4" data-name="Ellipse 79" cx="0.146" cy="0.146" r="0.146" transform="translate(1762.316 284.616)" fill="#fff"/>
      <circle id="Ellipse_79-5" data-name="Ellipse 79" cx="0.146" cy="0.146" r="0.146" transform="translate(1680.849 325.673)" fill="#fff"/>
      <circle id="Ellipse_79-6" data-name="Ellipse 79" cx="0.146" cy="0.146" r="0.146" transform="translate(1680.849 309.162)" fill="#fff"/>
      <circle id="Ellipse_73" data-name="Ellipse 73" transform="translate(1687.171 297)" fill="#fff"/>
      <ellipse id="Ellipse_70" data-name="Ellipse 70" cx="0.5" rx="0.5" transform="translate(1679.171 279)" fill="#fff"/>
      <circle id="Ellipse_74" data-name="Ellipse 74" transform="translate(1706.171 283)" fill="#fff"/>
      <circle id="Ellipse_75" data-name="Ellipse 75" cx="0.146" cy="0.146" r="0.146" transform="translate(1701.432 297.308)" fill="#fff"/>
      <circle id="Ellipse_75-2" data-name="Ellipse 75" cx="0.146" cy="0.146" r="0.146" transform="translate(1705.693 268.821)" fill="#fff"/>
      <circle id="Ellipse_75-3" data-name="Ellipse 75" cx="0.146" cy="0.146" r="0.146" transform="translate(1756.891 374.913)" fill="#fff"/>
      <circle id="Ellipse_75-4" data-name="Ellipse 75" cx="0.146" cy="0.146" r="0.146" transform="translate(1776.879 286.821)" fill="#fff"/>
      <circle id="Ellipse_75-5" data-name="Ellipse 75" cx="0.146" cy="0.146" r="0.146" transform="translate(1786.879 310.067)" fill="#fff"/>
      <circle id="Ellipse_75-6" data-name="Ellipse 75" cx="0.146" cy="0.146" r="0.146" transform="translate(1692.432 284.821)" fill="#fff"/>
      <circle id="Ellipse_80" data-name="Ellipse 80" cx="0.146" cy="0.146" r="0.146" transform="translate(1719.785 274.724)" fill="#fff"/>
      <circle id="Ellipse_103" data-name="Ellipse 103" cx="0.439" cy="0.439" r="0.439" transform="translate(1740.426 349.906)" fill="#fff"/>
      <circle id="Ellipse_98" data-name="Ellipse 98" cx="0.439" cy="0.439" r="0.439" transform="translate(1754.832 295.203)" fill="#fff"/>
      <circle id="Ellipse_115" data-name="Ellipse 115" cx="0.5" cy="0.5" r="0.5" transform="translate(1751.452 360.092)" fill="#fff"/>
      <circle id="Ellipse_86" data-name="Ellipse 86" cx="0.939" cy="0.939" r="0.939" transform="translate(1700.94 324.241)" fill="#fff"/>
      <circle id="Ellipse_86-2" data-name="Ellipse 86" cx="0.939" cy="0.939" r="0.939" transform="translate(1706.785 276.982)" fill="#fff"/>
      <circle id="Ellipse_120" data-name="Ellipse 120" cx="0.439" cy="0.439" r="0.439" transform="translate(1771.094 294.814)" fill="#fff"/>
      <ellipse id="Ellipse_106" data-name="Ellipse 106" cy="0.5" ry="0.5" transform="translate(1682.171 361.092)" fill="#fff"/>
      <circle id="Ellipse_77" data-name="Ellipse 77" cx="0.439" cy="0.439" r="0.439" transform="translate(1709.329 290.961)" fill="#fff"/>
      <circle id="Ellipse_97" data-name="Ellipse 97" cx="0.439" cy="0.439" r="0.439" transform="translate(1715.302 348.679)" fill="#fff"/>
      <circle id="Ellipse_88" data-name="Ellipse 88" cx="0.292" cy="0.292" r="0.292" transform="translate(1736.448 298.73)" fill="#fff"/>
      <circle id="Ellipse_81" data-name="Ellipse 81" cx="0.292" cy="0.292" r="0.292" transform="translate(1711.298 306.905)" fill="#fff"/>
      <circle id="Ellipse_112" data-name="Ellipse 112" cx="0.292" cy="0.292" r="0.292" transform="translate(1731.7 366.416)" fill="#fff"/>
      <circle id="Ellipse_108" data-name="Ellipse 108" cx="0.292" cy="0.292" r="0.292" transform="translate(1713.428 356.108)" fill="#fff"/>
      <circle id="Ellipse_108-2" data-name="Ellipse 108" cx="0.292" cy="0.292" r="0.292" transform="translate(1773.489 303.435)" fill="#fff"/>
      <circle id="Ellipse_108-3" data-name="Ellipse 108" cx="0.292" cy="0.292" r="0.292" transform="translate(1765.489 353.108)" fill="#fff"/>
      <circle id="Ellipse_108-4" data-name="Ellipse 108" cx="0.292" cy="0.292" r="0.292" transform="translate(1693.042 311.685)" fill="#fff"/>
      <circle id="Ellipse_108-5" data-name="Ellipse 108" cx="0.292" cy="0.292" r="0.292" transform="translate(1688.042 366.108)" fill="#fff"/>
      <circle id="Ellipse_108-6" data-name="Ellipse 108" cx="0.292" cy="0.292" r="0.292" transform="translate(1784.489 328.935)" fill="#fff"/>
      <circle id="Ellipse_121" data-name="Ellipse 121" cx="0.292" cy="0.292" r="0.292" transform="translate(1763.217 344.869)" fill="#fff"/>
      <circle id="Ellipse_104" data-name="Ellipse 104" cx="0.292" cy="0.292" r="0.292" transform="translate(1759.137 349.53)" fill="#fff"/>
      <ellipse id="Ellipse_118" data-name="Ellipse 118" cx="0.5" rx="0.5" transform="translate(1767.618 295)" fill="#fff"/>
      <circle id="Ellipse_84" data-name="Ellipse 84" cx="0.292" cy="0.292" r="0.292" transform="translate(1726.599 286.418)" fill="#fff"/>
      <circle id="Ellipse_87" data-name="Ellipse 87" cx="0.292" cy="0.292" r="0.292" transform="translate(1728.358 320.335)" fill="#fff"/>
      <circle id="Ellipse_111" data-name="Ellipse 111" cx="0.792" cy="0.792" r="0.792" transform="translate(1761.168 328.37)" fill="#fff"/>
      <circle id="Ellipse_91" data-name="Ellipse 91" cx="0.292" cy="0.292" r="0.292" transform="translate(1741.901 275.016)" fill="#fff"/>
    </g>
  </g>
  <g id="Foreground" transform="translate(5 -62.691)">
    <g id="Groupe_517" data-name="Groupe 517" transform="translate(29.648 86.524)">
      <line id="Ligne_1" data-name="Ligne 1" x1="14.857" y2="11.696" transform="translate(1.959 2.6)" fill="none" stroke="#fafafa" stroke-width="1"/>
      <line id="Ligne_2" data-name="Ligne 2" x1="0.948" y2="13.593" transform="translate(1.01 14.296)" fill="none" stroke="#fafafa" stroke-width="1"/>
      <line id="Ligne_3" data-name="Ligne 3" x1="5.69" y1="9.8" transform="translate(1.01 27.888)" fill="none" stroke="#fafafa" stroke-width="1"/>
      <line id="Ligne_4" data-name="Ligne 4" x2="8.851" transform="translate(6.7 37.688)" fill="none" stroke="#fafafa" stroke-width="1"/>
      <line id="Ligne_10" data-name="Ligne 10" x1="0.632" y1="8.535" transform="translate(8.281 38.636)" fill="none" stroke="#fafafa" stroke-width="1"/>
      <line id="Ligne_11" data-name="Ligne 11" y2="8.219" transform="translate(8.913 47.171)" fill="none" stroke="#fafafa" stroke-width="1"/>
      <line id="Ligne_12" data-name="Ligne 12" x1="10.431" y1="3.161" transform="translate(8.913 55.39)" fill="none" stroke="#fafafa" stroke-width="1"/>
      <line id="Ligne_13" data-name="Ligne 13" y1="3.161" x2="11.696" transform="translate(19.345 55.39)" fill="none" stroke="#fafafa" stroke-width="1"/>
      <line id="Ligne_14" data-name="Ligne 14" y2="8.219" transform="translate(31.041 47.171)" fill="none" stroke="#fafafa" stroke-width="1"/>
      <line id="Ligne_15" data-name="Ligne 15" y1="9.483" transform="translate(31.041 37.688)" fill="none" stroke="#fafafa" stroke-width="1"/>
      <line id="Ligne_16" data-name="Ligne 16" x1="11.38" transform="translate(19.661 47.171)" fill="none" stroke="#fafafa" stroke-width="0.5"/>
      <line id="Ligne_17" data-name="Ligne 17" x2="11.064" transform="translate(8.597 47.171)" fill="none" stroke="#fafafa" stroke-width="0.5"/>
      <line id="Ligne_5" data-name="Ligne 5" x1="7.271" transform="translate(15.551 37.688)" fill="none" stroke="#fafafa" stroke-width="1"/>
      <line id="Ligne_6" data-name="Ligne 6" x2="8.219" transform="translate(22.822 37.688)" fill="none" stroke="#fafafa" stroke-width="1"/>
      <line id="Ligne_7" data-name="Ligne 7" x1="8.219" y2="10.748" transform="translate(31.041 26.94)" fill="none" stroke="#fafafa" stroke-width="1"/>
      <line id="Ligne_8" data-name="Ligne 8" x1="5.058" y1="17.07" transform="translate(34.202 9.554)" fill="none" stroke="#fafafa" stroke-width="1"/>
      <line id="Ligne_9" data-name="Ligne 9" x2="15.173" y2="6.954" transform="translate(19.029 2.6)" fill="none" stroke="#fafafa" stroke-width="1"/>
      <circle id="Ellipse_3" data-name="Ellipse 3" cx="3.118" cy="3.118" r="3.118" transform="translate(15.848 0.476)" fill="#fa7575"/>
      <ellipse id="Ellipse_69" data-name="Ellipse 69" cx="3.118" cy="3.377" rx="3.118" ry="3.377" transform="translate(27.799 34.25)" fill="#f1881e"/>
      <circle id="Ellipse_2" data-name="Ellipse 2" cx="3.118" cy="3.118" r="3.118" transform="translate(4.936 34.769)" fill="#fa7575"/>
      <circle id="Ellipse_2-2" data-name="Ellipse 2" cx="3.118" cy="3.118" r="3.118" transform="translate(16.255 55.143)" fill="#827081"/>
      <circle id="Ellipse_7" data-name="Ellipse 7" cx="1.559" cy="1.559" r="1.559" transform="translate(18.446 45.681)" fill="#fad1be"/>
      <circle id="Ellipse_7-2" data-name="Ellipse 7" cx="1.559" cy="1.559" r="1.559" transform="translate(29.199 53.604)" fill="#fa4d3d"/>
      <circle id="Ellipse_7-3" data-name="Ellipse 7" cx="1.559" cy="1.559" r="1.559" transform="translate(7.693 53.604)" fill="#f88876"/>
      <circle id="Ellipse_11" data-name="Ellipse 11" cx="0.779" cy="0.779" r="0.779" transform="translate(8.054 46.2)" fill="#daceda"/>
      <circle id="Ellipse_13" data-name="Ellipse 13" cx="0.779" cy="0.779" r="0.779" transform="translate(30.396 46.2)" fill="#f88876"/>
      <circle id="Ellipse_5" data-name="Ellipse 5" cx="1.559" cy="1.559" r="1.559" transform="translate(0.26 12.427)" fill="#feeddf"/>
      <circle id="Ellipse_15" data-name="Ellipse 15" cx="0.779" cy="0.779" r="0.779" transform="translate(0.26 26.975)" fill="#c66e7c"/>
      <circle id="Ellipse_6" data-name="Ellipse 6" cx="1.559" cy="1.559" r="1.559" transform="translate(37.671 24.897)" fill="#684651"/>
      <circle id="Ellipse_8" data-name="Ellipse 8" cx="1.559" cy="1.559" r="1.559" transform="translate(32.475 7.75)" fill="#28666e"/>
      <circle id="Ellipse_10" data-name="Ellipse 10" cx="0.779" cy="0.779" r="0.779" transform="translate(22.083 36.848)" fill="#feeddf"/>
      <circle id="Ellipse_10-2" data-name="Ellipse 10" cx="0.779" cy="0.779" r="0.779" transform="translate(15.292 36.848)" fill="#f1881e"/>
    </g>
  </g>
</svg>
