<svg id="baseline-format_color_fill-24px" xmlns="http://www.w3.org/2000/svg" width="48.34" height="48.34" viewBox="0 0 48.34 48.34">
  <path id="Tracé_1253" data-name="Tracé 1253" d="M0,0H48.34V48.34H0Z" fill="none"/>
  <path id="Tracé_1254" data-name="Tracé 1254" d="M30.315,18.007,12.308,0,9.468,2.84l4.794,4.794L3.889,18.007a3,3,0,0,0,0,4.27L14.967,33.354a3.015,3.015,0,0,0,4.27,0L30.315,22.277a3,3,0,0,0,0-4.27ZM7.454,20.142,17.1,10.494l9.648,9.648Zm27.775,3.021S31.2,27.534,31.2,30.212a4.028,4.028,0,1,0,8.057,0C39.257,27.534,35.229,23.163,35.229,23.163Z" transform="translate(3.04)" fill="#fa4d3d"/>
  <path id="Tracé_1255" data-name="Tracé 1255" d="M0,20H48.34v8.057H0Z" transform="translate(0 20.283)" fill="#fa4d3d"/>
</svg>
