<svg xmlns="http://www.w3.org/2000/svg" width="34.245" height="27.376" viewBox="0 0 34.245 27.376">
  <path id="Tracé_6336" data-name="Tracé 6336" d="M33.5,11.811,31.39,14.983a13.72,13.72,0,0,1-.377,13H7.242A13.72,13.72,0,0,1,25.267,8.861L28.44,6.751A17.15,17.15,0,0,0,4.293,29.7a3.43,3.43,0,0,0,2.95,1.715H31A3.43,3.43,0,0,0,33.98,29.7a17.15,17.15,0,0,0-.463-17.9ZM16.709,23.541a3.43,3.43,0,0,0,4.854,0L31.27,8.981,16.709,18.688a3.43,3.43,0,0,0,0,4.854Z" transform="translate(-2.032 -4.038)" fill="#feeddf"/>
</svg>
